<?xml version="1.0" encoding="iso-8859-1"?>
<!-- Generator: Adobe Illustrator 19.0.0, SVG Export Plug-In . SVG Version: 6.00 Build 0)  -->
<!-- License: CC0. Made by SVG Repo: https://www.svgrepo.com/svg/248193/motherboard -->
<svg version="1.1" id="Layer_1" xmlns="http://www.w3.org/2000/svg" xmlns:xlink="http://www.w3.org/1999/xlink" x="0px" y="0px"
	 viewBox="0 0 512 512" style="enable-background:new 0 0 512 512;" xml:space="preserve">
<rect x="394.449" y="235.102" style="fill:#44FF44;" width="41.796" height="141.061"/>
<rect x="7.837" y="135.837" style="fill:#44FF44;" width="386.612" height="240.327"/>



<path style="fill:#CAF9F4;" d="M169.796,318.694H86.204c-11.542,0-20.898-9.356-20.898-20.898v-83.592
	c0-11.542,9.356-20.898,20.898-20.898h83.592c11.542,0,20.898,9.356,20.898,20.898v83.592
	C190.694,309.338,181.338,318.694,169.796,318.694z"/>
<g>
	<rect x="251.82" y="193.306" style="fill:#FFFFFF;" width="85.682" height="28.212"/>
	<rect x="251.82" y="256" style="fill:#FFFFFF;" width="85.682" height="28.212"/>
</g>
<path d=""/>
<path d="M78.367,325.436v19.381h15.673v-18.286h12.19v18.286h15.673v-18.286h12.191v18.286h15.673v-18.286h12.191v18.286h15.673
	v-19.381c9.552-2.713,17.09-10.25,19.803-19.803h19.381v-15.673h-18.286v-12.191h18.286v-15.673h-18.286v-12.191h18.286v-15.673
	h-18.286v-12.19h18.286v-15.673h-19.381c-2.713-9.552-10.25-17.09-19.803-19.803v-19.381h-15.673v18.286h-12.191v-18.286h-15.673
	v18.286h-12.191v-18.286h-15.673v18.286h-12.19v-18.286H78.367v19.381c-9.552,2.713-17.09,10.25-19.803,19.803H39.184v15.673h18.286
	v12.191H39.184v15.673h18.286v12.191H39.184v15.673h18.286v12.19H39.184v15.673h19.381
	C61.277,315.185,68.815,322.723,78.367,325.436z M73.143,214.204c0-7.202,5.859-13.061,13.061-13.061h83.592
	c7.202,0,13.061,5.859,13.061,13.061v83.592c0,7.202-5.859,13.061-13.061,13.061H86.204c-7.202,0-13.061-5.859-13.061-13.061
	V214.204z"/>
<path d="M345.339,185.469H243.984v43.886h101.355V185.469z M329.665,213.682h-70.008v-12.539h70.008V213.682z"/>
<path d="M345.339,248.163H243.984v43.886h101.355V248.163z M329.665,276.375h-70.008v-12.539h70.008V276.375z"/>
<circle cx="159.347" cy="224.653" r="10.449"/>
</svg>
